<?xml version="1.0" encoding="utf-8"?>
<!-- Generator: Adobe Illustrator 27.5.0, SVG Export Plug-In . SVG Version: 6.00 Build 0)  -->
<svg version="1.1" xmlns="http://www.w3.org/2000/svg" xmlns:xlink="http://www.w3.org/1999/xlink" x="0px" y="0px"
	 viewBox="0 0 750 500" style="enable-background:new 0 0 750 500;" xml:space="preserve">
<g id="Background_Simple">
	<g>
		<path style="fill:#92E3A9;" d="M137.786,472.381h476.734c7.826-9.353,53.343-68.576,32.944-158.574
			c-22.279-98.29-35.384-99.6-133.674-161.195c-98.29-61.595-132.364-114.016-245.069-72.079S152.085,201.101,157.327,264.007
			c5.242,62.905-66.837,111.395-70.769,150.711C83.402,446.277,110.646,466.844,137.786,472.381z"/>
		<path style="opacity:0.7;fill:#FFFFFF;" d="M137.786,472.381h476.734c7.826-9.353,53.343-68.576,32.944-158.574
			c-22.279-98.29-35.384-99.6-133.674-161.195c-98.29-61.595-132.364-114.016-245.069-72.079S152.085,201.101,157.327,264.007
			c5.242,62.905-66.837,111.395-70.769,150.711C83.402,446.277,110.646,466.844,137.786,472.381z"/>
	</g>
</g>
<g id="Plant_2">
	<g>
		<path style="fill:none;stroke:#263238;stroke-width:2;stroke-linecap:round;stroke-linejoin:round;stroke-miterlimit:10;" d="
			M603.623,306.635c0,0-12.292-6.829-13.203,8.65c-0.91,15.479-3.187,116.092-3.187,116.092"/>
		<path style="fill:none;stroke:#263238;stroke-width:2;stroke-linecap:round;stroke-linejoin:round;stroke-miterlimit:10;" d="
			M584.036,316.649c0,0,10.026,22.31,5.473,113.362"/>
		<g>
			<path style="fill:#92E3A9;" d="M593.886,309.751c0,0-4.702,3.013-7.377-0.435c-2.675-3.448,1.81-9.764-2.144-12.465
				c-3.953-2.701-10.777,1.421-10.777,1.421s5.256,1.544,5.086,4.413s-2.701,3.953-3.038,2.7c-0.337-1.254-2.844-7.571-7.111-4.944
				c-4.268,2.627-4.92,6.702-4.92,6.702s9.933-1.059,10.536,2.678c0.602,3.737-4.074-0.652-8.173-0.894
				c-4.099-0.242-7.836,0.36-7.571,2.844c0.265,2.483-0.387,6.558-0.387,6.558s3.472-3.085,7.981-2.819
				c4.509,0.266,4.339,3.135,0.241,2.893c-4.098-0.242-7.619,3.663-7.619,3.663s3.736,6.39,8.485,9.549
				c4.749,3.159,6.461,2.026,7.016-0.409c0.555-2.435-0.722-8.68,2.147-8.51c2.869,0.169-4.751,10.824-1.087,11.452
				c3.665,0.627,6.606-0.433,7.571-2.844c0.965-2.411,0.965-2.411,0.965-2.411s-1.277-6.245-0.722-8.679
				c0.555-2.435,1.23,0.072,1.88,2.99c0.651,2.917,1.059,9.933,2.313,9.596c1.254-0.337,5.257-5.448,6.197-7.449
				c0.941-2.001-5.278-8.126-5.206-9.355c0.073-1.229,4.87,1.11,5.617,2.388c0.747,1.278,1.47,2.966,1.47,2.966
				s2.99-1.88,2.919-7.642C598.106,307.943,593.886,309.751,593.886,309.751z"/>
			<path style="opacity:0.3;fill:#263238;" d="M593.886,309.751c0,0-4.702,3.013-7.377-0.435c-2.675-3.448,1.81-9.764-2.144-12.465
				c-3.953-2.701-10.777,1.421-10.777,1.421s5.256,1.544,5.086,4.413s-2.701,3.953-3.038,2.7c-0.337-1.254-2.844-7.571-7.111-4.944
				c-4.268,2.627-4.92,6.702-4.92,6.702s9.933-1.059,10.536,2.678c0.602,3.737-4.074-0.652-8.173-0.894
				c-4.099-0.242-7.836,0.36-7.571,2.844c0.265,2.483-0.387,6.558-0.387,6.558s3.472-3.085,7.981-2.819
				c4.509,0.266,4.339,3.135,0.241,2.893c-4.098-0.242-7.619,3.663-7.619,3.663s3.736,6.39,8.485,9.549
				c4.749,3.159,6.461,2.026,7.016-0.409c0.555-2.435-0.722-8.68,2.147-8.51c2.869,0.169-4.751,10.824-1.087,11.452
				c3.665,0.627,6.606-0.433,7.571-2.844c0.965-2.411,0.965-2.411,0.965-2.411s-1.277-6.245-0.722-8.679
				c0.555-2.435,1.23,0.072,1.88,2.99c0.651,2.917,1.059,9.933,2.313,9.596c1.254-0.337,5.257-5.448,6.197-7.449
				c0.941-2.001-5.278-8.126-5.206-9.355c0.073-1.229,4.87,1.11,5.617,2.388c0.747,1.278,1.47,2.966,1.47,2.966
				s2.99-1.88,2.919-7.642C598.106,307.943,593.886,309.751,593.886,309.751z"/>
			<path style="fill:none;stroke:#263238;stroke-linecap:round;stroke-linejoin:round;stroke-miterlimit:10;" d="M570.049,323.262
				c3.066-3.791,7.585-8.92,11.372-11.367"/>
			<path style="fill:none;stroke:#263238;stroke-linecap:round;stroke-linejoin:round;stroke-miterlimit:10;" d="M566.495,327.876
				c0,0,0.787-1.095,2.063-2.735"/>
			<path style="fill:none;stroke:#263238;stroke-linecap:round;stroke-linejoin:round;stroke-miterlimit:10;" d="M583.422,312.835
				c0,0,4.556,6.438,5.398,13.068"/>
			<path style="fill:none;stroke:#263238;stroke-linecap:round;stroke-linejoin:round;stroke-miterlimit:10;" d="M578.262,316.643
				c0,0,1.278-0.747,0.794,7.45"/>
			<path style="fill:none;stroke:#263238;stroke-linecap:round;stroke-linejoin:round;stroke-miterlimit:10;" d="M581.591,309.025
				c0,0,2.604-2.314,1.231-6.919"/>
			
				<line style="fill:none;stroke:#263238;stroke-linecap:round;stroke-linejoin:round;stroke-miterlimit:10;" x1="578.07" y1="312.93" x2="576.214" y2="309.531"/>
			<path style="fill:none;stroke:#263238;stroke-linecap:round;stroke-linejoin:round;stroke-miterlimit:10;" d="M574.164,316.401
				c0,0-5.906-4.461-9.595-4.679"/>
		</g>
		<g>
			<path style="fill:#92E3A9;" d="M610.645,297.603c0,0-0.188,6.761-5.464,7.09c-5.276,0.328-8.542-8.467-13.941-6.35
				c-5.399,2.117-5.924,11.759-5.924,11.759s5.128-4.21,7.885-2.085s2.117,5.399,0.632,4.882c-1.485-0.517-9.518-2.313-9.797,3.75
				c-0.279,6.064,3.357,9.493,3.357,9.493s5.71-10.667,9.862-8.723c4.152,1.944-3.43,3.635-6.466,7.574
				c-3.036,3.939-4.98,8.091-2.313,9.518c2.667,1.427,6.302,4.857,6.302,4.857s-0.722-5.579,2.617-9.912
				c3.339-4.333,6.096-2.208,3.061,1.731c-3.036,3.939-1.526,10.125-1.526,10.125s8.944,0.615,15.344-1.986
				c6.4-2.602,6.433-5.088,4.373-7.303c-2.06-2.215-9.182-5.193-7.057-7.951c2.125-2.757,7.599,12.135,10.725,8.894
				c3.126-3.241,4.07-6.909,2.313-9.518c-1.756-2.609-1.756-2.609-1.756-2.609s-7.122-2.978-9.182-5.193
				c-2.06-2.215,0.911-1.182,4.275,0.156c3.364,1.337,10.667,5.711,11.184,4.225c0.517-1.485-1.871-8.977-3.234-11.282
				c-1.362-2.306-11.734-0.254-12.915-1.164c-1.182-0.911,4.431-4.119,6.219-3.996c1.789,0.123,3.971,0.549,3.971,0.549
				s0.156-4.275-5.662-8.131C611.712,292.147,610.645,297.603,610.645,297.603z"/>
			<path style="opacity:0.2;fill:#263238;" d="M610.645,297.603c0,0-0.188,6.761-5.464,7.09c-5.276,0.328-8.542-8.467-13.941-6.35
				c-5.399,2.117-5.924,11.759-5.924,11.759s5.128-4.21,7.885-2.085s2.117,5.399,0.632,4.882c-1.485-0.517-9.518-2.313-9.797,3.75
				c-0.279,6.064,3.357,9.493,3.357,9.493s5.71-10.667,9.862-8.723c4.152,1.944-3.43,3.635-6.466,7.574
				c-3.036,3.939-4.98,8.091-2.313,9.518c2.667,1.427,6.302,4.857,6.302,4.857s-0.722-5.579,2.617-9.912
				c3.339-4.333,6.096-2.208,3.061,1.731c-3.036,3.939-1.526,10.125-1.526,10.125s8.944,0.615,15.344-1.986
				c6.4-2.602,6.433-5.088,4.373-7.303c-2.06-2.215-9.182-5.193-7.057-7.951c2.125-2.757,7.599,12.135,10.725,8.894
				c3.126-3.241,4.07-6.909,2.313-9.518c-1.756-2.609-1.756-2.609-1.756-2.609s-7.122-2.978-9.182-5.193
				c-2.06-2.215,0.911-1.182,4.275,0.156c3.364,1.337,10.667,5.711,11.184,4.225c0.517-1.485-1.871-8.977-3.234-11.282
				c-1.362-2.306-11.734-0.254-12.915-1.164c-1.182-0.911,4.431-4.119,6.219-3.996c1.789,0.123,3.971,0.549,3.971,0.549
				s0.156-4.275-5.662-8.131C611.712,292.147,610.645,297.603,610.645,297.603z"/>
			<path style="fill:none;stroke:#263238;stroke-linecap:round;stroke-linejoin:round;stroke-miterlimit:10;" d="M607.925,330.678
				c-1.705-5.654-3.76-13.674-3.63-19.134"/>
			<path style="fill:none;stroke:#263238;stroke-linecap:round;stroke-linejoin:round;stroke-miterlimit:10;" d="M610.122,337.383
				c0,0-0.559-1.534-1.332-3.93"/>
			<path style="fill:none;stroke:#263238;stroke-linecap:round;stroke-linejoin:round;stroke-miterlimit:10;" d="M606.601,310.182
				c0,0,9.551-0.173,16.764,3.503"/>
			<path style="fill:none;stroke:#263238;stroke-linecap:round;stroke-linejoin:round;stroke-miterlimit:10;" d="M606.896,317.944
				c0,0,0.123-1.789,8,4.283"/>
			<path style="fill:none;stroke:#263238;stroke-linecap:round;stroke-linejoin:round;stroke-miterlimit:10;" d="M601.538,309.419
				c0,0-0.542-4.184-6.089-5.948"/>
			
				<line style="fill:none;stroke:#263238;stroke-linecap:round;stroke-linejoin:round;stroke-miterlimit:10;" x1="603.048" y1="315.606" x2="598.379" y2="315.147"/>
			<path style="fill:none;stroke:#263238;stroke-linecap:round;stroke-linejoin:round;stroke-miterlimit:10;" d="M603.861,321.883
				c0,0-8.492,2.872-11.225,6.417"/>
		</g>
		<path style="fill:none;stroke:#263238;stroke-width:2;stroke-linecap:round;stroke-linejoin:round;stroke-miterlimit:10;" d="
			M553.999,342.601c0,0,26.861,17.755,26.405,86.5"/>
		<g>
			<path style="fill:#92E3A9;" d="M587.117,337.91c0,0-0.856,7.784-6.975,7.665c-6.119-0.119-9.058-10.577-15.488-8.643
				c-6.43,1.934-7.945,13.009-7.945,13.009s6.315-4.374,9.296-1.661c2.981,2.712,1.933,6.43,0.268,5.693
				c-1.665-0.737-10.765-3.568-11.659,3.403c-0.894,6.971,2.977,11.271,2.977,11.271s7.596-11.77,12.204-9.135
				c4.608,2.636-4.301,3.871-8.175,8.13c-3.875,4.258-6.51,8.866-3.568,10.765s6.814,6.2,6.814,6.2s-0.307-6.507,3.955-11.191
				c4.262-4.684,7.243-1.972,3.368,2.286c-3.875,4.259-2.716,11.54-2.716,11.54s10.262,1.554,17.893-0.844
				c7.631-2.398,7.903-5.264,5.735-8.014c-2.168-2.751-10.105-6.86-7.393-9.84c2.712-2.981,7.623,14.72,11.536,11.275
				c3.913-3.445,5.348-7.589,3.568-10.765c-1.78-3.177-1.78-3.177-1.78-3.177s-7.938-4.109-10.105-6.859
				c-2.168-2.751,1.162-1.277,4.918,0.583c3.756,1.861,11.77,7.596,12.507,5.931c0.737-1.665-1.312-10.535-2.666-13.324
				c-1.354-2.789-13.516-1.4-14.793-2.563c-1.278-1.162,5.501-4.335,7.554-4.024c2.052,0.311,4.531,1.009,4.531,1.009
				s0.583-4.918-5.766-9.917C588.863,331.714,587.117,337.91,587.117,337.91z"/>
			<path style="opacity:0.3;fill:#263238;" d="M587.117,337.91c0,0-0.856,7.784-6.975,7.665c-6.119-0.119-9.058-10.577-15.488-8.643
				c-6.43,1.934-7.945,13.009-7.945,13.009s6.315-4.374,9.296-1.661c2.981,2.712,1.933,6.43,0.268,5.693
				c-1.665-0.737-10.765-3.568-11.659,3.403c-0.894,6.971,2.977,11.271,2.977,11.271s7.596-11.77,12.204-9.135
				c4.608,2.636-4.301,3.871-8.175,8.13c-3.875,4.258-6.51,8.866-3.568,10.765s6.814,6.2,6.814,6.2s-0.307-6.507,3.955-11.191
				c4.262-4.684,7.243-1.972,3.368,2.286c-3.875,4.259-2.716,11.54-2.716,11.54s10.262,1.554,17.893-0.844
				c7.631-2.398,7.903-5.264,5.735-8.014c-2.168-2.751-10.105-6.86-7.393-9.84c2.712-2.981,7.623,14.72,11.536,11.275
				c3.913-3.445,5.348-7.589,3.568-10.765c-1.78-3.177-1.78-3.177-1.78-3.177s-7.938-4.109-10.105-6.859
				c-2.168-2.751,1.162-1.277,4.918,0.583c3.756,1.861,11.77,7.596,12.507,5.931c0.737-1.665-1.312-10.535-2.666-13.324
				c-1.354-2.789-13.516-1.4-14.793-2.563c-1.278-1.162,5.501-4.335,7.554-4.024c2.052,0.311,4.531,1.009,4.531,1.009
				s0.583-4.918-5.766-9.917C588.863,331.714,587.117,337.91,587.117,337.91z"/>
			<path style="fill:none;stroke:#263238;stroke-linecap:round;stroke-linejoin:round;stroke-miterlimit:10;" d="M580.857,375.82
				c-1.434-6.685-3.049-16.133-2.383-22.422"/>
			<path style="fill:none;stroke:#263238;stroke-linecap:round;stroke-linejoin:round;stroke-miterlimit:10;" d="M582.759,383.763
				c0,0-0.501-1.823-1.166-4.661"/>
			<path style="fill:none;stroke:#263238;stroke-linecap:round;stroke-linejoin:round;stroke-miterlimit:10;" d="M581.263,352.044
				c0,0,11.037,0.702,19.013,5.624"/>
			<path style="fill:none;stroke:#263238;stroke-linecap:round;stroke-linejoin:round;stroke-miterlimit:10;" d="M580.872,361.028
				c0,0,0.311-2.052,8.828,5.697"/>
			<path style="fill:none;stroke:#263238;stroke-linecap:round;stroke-linejoin:round;stroke-miterlimit:10;" d="M575.493,350.685
				c0,0-0.23-4.88-6.464-7.439"/>
			
				<line style="fill:none;stroke:#263238;stroke-linecap:round;stroke-linejoin:round;stroke-miterlimit:10;" x1="576.652" y1="357.967" x2="571.307" y2="356.996"/>
			<path style="fill:none;stroke:#263238;stroke-linecap:round;stroke-linejoin:round;stroke-miterlimit:10;" d="M576.997,365.287
				c0,0-10.07,2.513-13.558,6.345"/>
		</g>
		<path style="fill:none;stroke:#263238;stroke-width:2;stroke-linecap:round;stroke-linejoin:round;stroke-miterlimit:10;" d="
			M564.47,396.777c0,0,17.3,13.203,19.121,32.779l-3.642-65.558"/>
		<path style="fill:none;stroke:#263238;stroke-width:2;stroke-linecap:round;stroke-linejoin:round;stroke-miterlimit:10;" d="
			M606.354,387.216c-22.763-4.097-22.763,42.34-22.763,42.34"/>
		<path style="fill:none;stroke:#263238;stroke-width:2;stroke-linecap:round;stroke-linejoin:round;stroke-miterlimit:10;" d="
			M586.323,429.101c0,0-13.202-96.06,25.04-96.06"/>
		<g>
			<path style="fill:#92E3A9;" d="M597.681,384.455c-3.109-3.498-9.717-3.498-13.603,5.441c-3.887,8.94-0.389,7.385-0.389,7.385
				s7.385-2.332,12.049-3.887c4.664-1.555,10.883-5.441,11.271-3.109c0.389,2.332-3.109,4.664-7.385,5.441
				c-4.275,0.777-15.547,3.887-14.381,6.219c1.166,2.332,3.887,9.328,3.887,9.328s5.441-4.664,10.494-7.773
				c5.053-3.109,8.162-1.943,5.441,1.555c-2.721,3.498-10.494,7.385-8.939,12.049c1.555,4.664,10.883,10.494,10.883,10.494
				s1.166-9.717,3.887-12.826s2.721,0.389,1.943,5.83c-0.777,5.441-0.777,6.996-0.777,6.996l10.883,3.887c0,0,3.887-5.83,5.83-7.773
				c1.943-1.943,1.943-1.943,1.943-1.943s-8.551-7.385-8.939-12.049c-0.389-4.664,5.83,0,7.773,0.777
				c1.943,0.777,5.053,6.219,5.053,6.219s1.943-8.939,2.332-12.049c0.389-3.109,0.389-3.109,0.389-3.109s-8.162-3.109-11.271-3.109
				c-3.109,0-4.664,2.332-4.664-0.777s3.109-5.053,6.607-4.664c3.498,0.389,9.328,2.332,9.328,2.332s2.332-1.943,1.555-7.773
				c-0.777-5.83-2.721-5.83-7.385-4.275c-4.664,1.555-7.773,5.053-11.271,5.053c-3.498,0-1.555-4.275,0.777-5.441
				c2.332-1.166,8.162-3.498,9.328-3.887c1.166-0.389-6.219-5.83-10.105-6.607c-3.887-0.777-8.919,1.961-8.551,5.83
				C612.45,386.398,600.79,387.953,597.681,384.455z"/>
			<path style="fill:none;stroke:#263238;stroke-linecap:round;stroke-linejoin:round;stroke-miterlimit:10;" d="M622.701,424.474
				c0.116,1.171,0.199,2.343,0.244,3.512"/>
			<path style="fill:none;stroke:#263238;stroke-linecap:round;stroke-linejoin:round;stroke-miterlimit:10;" d="M614.893,396.572
				c2.729,6.308,5.886,15.007,7.316,24.084"/>
			<path style="fill:none;stroke:#263238;stroke-linecap:round;stroke-linejoin:round;stroke-miterlimit:10;" d="M613.493,393.452
				c-1.925-4.141-3.375-6.665-3.375-6.665s3.498-1.555,5.053-4.664c1.555-3.109,3.887-4.664,3.887-4.664"/>
			<path style="fill:none;stroke:#263238;stroke-linecap:round;stroke-linejoin:round;stroke-miterlimit:10;" d="M596.515,400.002
				c0,0,13.992-5.83,13.992-4.664"/>
			<path style="fill:none;stroke:#263238;stroke-linecap:round;stroke-linejoin:round;stroke-miterlimit:10;" d="M618.28,392.617
				c0,0,6.219-3.109,11.66-3.109"/>
			<path style="fill:none;stroke:#263238;stroke-linecap:round;stroke-linejoin:round;stroke-miterlimit:10;" d="M615.948,401.945
				c0,0-3.498,2.721-7.385,7.385c-3.887,4.664-5.441,8.939-5.441,8.939"/>
			<path style="fill:none;stroke:#263238;stroke-linecap:round;stroke-linejoin:round;stroke-miterlimit:10;" d="M620.224,403.5
				c0,0,8.162-2.332,12.437,1.555"/>
		</g>
		<g>
			<path style="fill:#92E3A9;" d="M635.008,350.983c-4.232-2.503-8.911-2.558-11.205-5.199c-2.293-2.642,2.209-3.977,4.619-2.98
				c2.409,0.997,7.992,3.87,9.05,4.496c1.058,0.626,0.326-8.518-1.635-11.962c-1.961-3.445-7.328-5.45-10.008-2.635
				c-5.654,5.938-14.472-1.848-13.869-6.489c0.603-4.641-3.729-9.631-13.027-6.705c-9.298,2.926-5.831,4.548-5.831,4.548
				s6.602,4.048,10.834,6.551c4.232,2.503,11.243,4.651,9.737,6.473c-1.506,1.822-5.56,0.71-8.95-2.009
				c-3.39-2.719-13.127-9.192-14.124-6.783c-0.997,2.409-4.496,9.05-4.496,9.05s7.089,1.052,12.749,2.829
				c5.66,1.777,6.818,4.889,2.393,5.128c-4.425,0.239-12.456-3.083-14.959,1.148c-2.503,4.231-0.79,15.098-0.79,15.098
				s8.102-5.49,12.234-5.473c4.131,0.016,1.49,2.309-3.129,5.289c-4.619,2.98-5.792,3.999-5.792,3.999l4.199,10.766
				c0,0,6.951-0.887,9.692-0.694c2.741,0.193,2.741,0.193,2.741,0.193s-0.029-11.298,3.238-14.649
				c3.267-3.351,3.822,4.402,4.509,6.38c0.687,1.977-1.384,7.892-1.384,7.892s8.025-4.393,10.627-6.138
				c2.603-1.745,2.603-1.745,2.603-1.745s-3.003-8.202-5.041-10.55c-2.038-2.348-4.818-1.993-2.471-4.032
				c2.348-2.038,5.854-0.964,7.854,1.932c2,2.896,4.354,8.573,4.354,8.573s2.996,0.487,6.889-3.922
				C640.514,354.953,639.24,353.485,635.008,350.983z M598.225,363.423c-3.109-1.555,4.275-4.664,4.275-4.664
				C605.222,358.371,601.335,364.978,598.225,363.423z M603.461,348.913c-1.325-0.663,2.651-1.988,2.651-1.988
				C611.856,348.029,604.787,349.576,603.461,348.913z"/>
			<path style="fill:none;stroke:#263238;stroke-linecap:round;stroke-linejoin:round;stroke-miterlimit:10;" d="M598.143,371.341
				c-0.808,0.855-1.639,1.686-2.493,2.487"/>
			<path style="fill:none;stroke:#263238;stroke-linecap:round;stroke-linejoin:round;stroke-miterlimit:10;" d="M614.094,347.153
				c-2.974,6.197-7.473,14.283-13.391,21.314"/>
			<path style="fill:none;stroke:#263238;stroke-linecap:round;stroke-linejoin:round;stroke-miterlimit:10;" d="M615.532,344.051
				c1.864-4.169,2.82-6.918,2.82-6.918s3.467,1.622,6.834,0.758c3.367-0.864,6.07-0.123,6.07-0.123"/>
			<path style="fill:none;stroke:#263238;stroke-linecap:round;stroke-linejoin:round;stroke-miterlimit:10;" d="M612.151,343.032
				c0.88-0.764-12.695-7.508-12.695-7.508"/>
			<path style="fill:none;stroke:#263238;stroke-linecap:round;stroke-linejoin:round;stroke-miterlimit:10;" d="M619.301,347.119
				c0,0,6.425,2.658,9.992,6.767"/>
			<path style="fill:none;stroke:#263238;stroke-linecap:round;stroke-linejoin:round;stroke-miterlimit:10;" d="M610.728,351.473
				c0,0-4.348-0.858-10.418-0.735c-6.07,0.123-10.318,1.751-10.318,1.751"/>
			<path style="fill:none;stroke:#263238;stroke-linecap:round;stroke-linejoin:round;stroke-miterlimit:10;" d="M612.357,355.721
				c0,0,7.112,4.635,6.979,10.411"/>
		</g>
		<g>
			<path style="fill:#92E3A9;" d="M574.613,404.838c-3.405-2.014-7.172-2.058-9.017-4.184c-1.845-2.126,1.778-3.2,3.717-2.398
				c1.939,0.802,6.432,3.115,7.283,3.618c0.851,0.504,0.262-6.855-1.316-9.627c-1.578-2.772-5.897-4.386-8.054-2.121
				c-4.55,4.778-11.646-1.487-11.161-5.222c0.485-3.735-3-7.75-10.483-5.396c-7.483,2.354-4.693,3.66-4.693,3.66
				s5.313,3.257,8.719,5.272c3.405,2.014,9.048,3.743,7.836,5.209c-1.212,1.466-4.475,0.571-7.203-1.617
				c-2.728-2.188-10.564-7.397-11.366-5.458c-0.802,1.939-3.618,7.283-3.618,7.283s5.705,0.846,10.26,2.276
				c4.555,1.43,5.487,3.935,1.926,4.127c-3.561,0.192-10.024-2.481-12.038,0.924c-2.014,3.405-0.636,12.15-0.636,12.15
				s6.52-4.418,9.845-4.405c3.325,0.013,1.199,1.858-2.518,4.257c-3.717,2.398-4.661,3.219-4.661,3.219l3.379,8.664
				c0,0,5.593-0.714,7.8-0.558c2.206,0.156,2.206,0.156,2.206,0.156s-0.023-9.092,2.606-11.789c2.629-2.697,3.076,3.543,3.629,5.134
				c0.553,1.591-1.113,6.351-1.113,6.351s6.458-3.535,8.552-4.939c2.095-1.404,2.095-1.404,2.095-1.404s-2.417-6.6-4.057-8.49
				c-1.64-1.89-3.878-1.604-1.988-3.244c1.89-1.64,4.711-0.776,6.32,1.555c1.609,2.331,3.504,6.899,3.504,6.899
				s2.411,0.392,5.544-3.156C579.044,408.033,578.018,406.852,574.613,404.838z M545.012,414.85
				c-2.502-1.251,3.441-3.753,3.441-3.753C550.642,410.784,547.514,416.101,545.012,414.85z M549.226,403.172
				c-1.067-0.533,2.133-1.6,2.133-1.6C555.981,402.461,550.292,403.706,549.226,403.172z"/>
			<path style="fill:none;stroke:#263238;stroke-linecap:round;stroke-linejoin:round;stroke-miterlimit:10;" d="M544.946,421.221
				c-0.65,0.688-1.319,1.357-2.006,2.001"/>
			<path style="fill:none;stroke:#263238;stroke-linecap:round;stroke-linejoin:round;stroke-miterlimit:10;" d="M557.782,401.756
				c-2.394,4.987-6.014,11.494-10.776,17.152"/>
			<path style="fill:none;stroke:#263238;stroke-linecap:round;stroke-linejoin:round;stroke-miterlimit:10;" d="M558.94,399.26
				c1.5-3.355,2.27-5.567,2.27-5.567s2.79,1.305,5.5,0.61c2.71-0.696,4.885-0.099,4.885-0.099"/>
			<path style="fill:none;stroke:#263238;stroke-linecap:round;stroke-linejoin:round;stroke-miterlimit:10;" d="M546.002,392.398
				c0,0,10.925,5.427,10.216,6.042"/>
			<path style="fill:none;stroke:#263238;stroke-linecap:round;stroke-linejoin:round;stroke-miterlimit:10;" d="M561.973,401.729
				c0,0,5.17,2.139,8.041,5.445"/>
			<path style="fill:none;stroke:#263238;stroke-linecap:round;stroke-linejoin:round;stroke-miterlimit:10;" d="M555.074,405.233
				c0,0-3.499-0.69-8.384-0.592c-4.885,0.099-8.303,1.41-8.303,1.41"/>
			<path style="fill:none;stroke:#263238;stroke-linecap:round;stroke-linejoin:round;stroke-miterlimit:10;" d="M556.384,408.651
				c0,0,5.723,3.73,5.617,8.378"/>
		</g>
		<g>
			<path style="fill:#92E3A9;" d="M560.727,340.656c0,0-4.275,3.109-6.996,0c-2.721-3.109,1.166-9.328-2.721-11.66
				c-3.887-2.332-10.106,1.943-10.106,1.943s5.053,1.166,5.053,3.887c0,2.721-2.332,3.887-2.721,2.721
				c-0.389-1.166-3.109-6.996-6.996-4.275c-3.887,2.721-4.276,6.607-4.276,6.607s9.328-1.555,10.105,1.943
				c0.777,3.498-3.887-0.389-7.773-0.389c-3.887,0-7.385,0.777-6.996,3.109c0.389,2.332,0,6.219,0,6.219s3.109-3.109,7.385-3.109
				c4.276,0,4.276,2.721,0.389,2.721c-3.887,0-6.996,3.887-6.996,3.887s3.887,5.83,8.551,8.551c4.664,2.721,6.219,1.555,6.607-0.777
				c0.389-2.332-1.166-8.162,1.555-8.162c2.721,0-3.887,10.494-0.389,10.883c3.498,0.389,6.219-0.777,6.996-3.109
				c0.777-2.332,0.777-2.332,0.777-2.332s-1.555-5.83-1.166-8.162c0.388-2.332,1.166,0,1.943,2.721
				c0.777,2.721,1.555,9.328,2.721,8.939c1.166-0.389,4.664-5.441,5.441-7.385c0.777-1.943-5.441-7.385-5.441-8.551
				s4.664,0.777,5.441,1.943c0.777,1.166,1.555,2.721,1.555,2.721s2.721-1.943,2.332-7.385
				C564.614,338.713,560.727,340.656,560.727,340.656z"/>
			<path style="fill:none;stroke:#263238;stroke-linecap:round;stroke-linejoin:round;stroke-miterlimit:10;" d="M538.954,354.754
				c2.686-3.753,6.671-8.852,10.113-11.376"/>
			<path style="fill:none;stroke:#263238;stroke-linecap:round;stroke-linejoin:round;stroke-miterlimit:10;" d="M535.852,359.313
				c0,0,0.683-1.078,1.798-2.699"/>
			<path style="fill:none;stroke:#263238;stroke-linecap:round;stroke-linejoin:round;stroke-miterlimit:10;" d="M551.011,344.154
				c0,0,4.664,5.83,5.83,12.049"/>
			<path style="fill:none;stroke:#263238;stroke-linecap:round;stroke-linejoin:round;stroke-miterlimit:10;" d="M546.347,348.041
				c0,0,1.166-0.777,1.166,6.996"/>
			<path style="fill:none;stroke:#263238;stroke-linecap:round;stroke-linejoin:round;stroke-miterlimit:10;" d="M549.067,340.656
				c0,0,2.332-2.332,0.777-6.607"/>
			
				<line style="fill:none;stroke:#263238;stroke-linecap:round;stroke-linejoin:round;stroke-miterlimit:10;" x1="545.958" y1="344.543" x2="544.015" y2="341.434"/>
			<path style="fill:none;stroke:#263238;stroke-linecap:round;stroke-linejoin:round;stroke-miterlimit:10;" d="M542.46,348.041
				c0,0-5.83-3.887-9.328-3.887"/>
		</g>
		
			<rect x="569.934" y="427.735" style="fill:#263238;stroke:#263238;stroke-width:2;stroke-linecap:round;stroke-linejoin:round;stroke-miterlimit:10;" width="30.047" height="43.25"/>
	</g>
</g>
<g id="Plant_1">
	<g>
		<g>
			<path style="fill:none;stroke:#263238;stroke-miterlimit:10;" d="M329.324,95.377c0,0,0.355-12.778-0.097-23.763
				c-0.452-10.985,0.459-34.554,0.459-34.554"/>
			<line style="fill:none;stroke:#263238;stroke-miterlimit:10;" x1="329.477" y1="50.917" x2="324.485" y2="46.992"/>
			<line style="fill:none;stroke:#263238;stroke-miterlimit:10;" x1="329.424" y1="53.623" x2="331.198" y2="50.746"/>
			<line style="fill:none;stroke:#263238;stroke-miterlimit:10;" x1="329.018" y1="64.987" x2="333.45" y2="61.321"/>
			<line style="fill:none;stroke:#263238;stroke-miterlimit:10;" x1="329.69" y1="41.891" x2="327.349" y2="39.763"/>
			<line style="fill:none;stroke:#263238;stroke-miterlimit:10;" x1="328.976" y1="66.984" x2="326.047" y2="63.838"/>
			<line style="fill:none;stroke:#263238;stroke-miterlimit:10;" x1="329.233" y1="79.317" x2="323.136" y2="73.756"/>
			<path style="fill:none;stroke:#263238;stroke-miterlimit:10;" d="M329.391,86.169c0,0,1.102-0.349,4.52-2.11"/>
			<path style="fill:#92E3A9;" d="M326.027,52.89c-2.447-1.895-10.663-1.557-12.247,2.374c-1.584,3.931,3.418,10.334,8.262,9.885
				c1.891-0.175,2.708-0.31,3.449-1.367l0,0l-6.751-6.597l7.304,5.87c0.199-0.35,0.364-0.746,0.5-1.2
				c0.087-0.29,0.163-0.601,0.229-0.937C327.244,58.569,328.312,54.66,326.027,52.89z"/>
			<path style="fill:#92E3A9;" d="M341.907,48.332c-0.009,0.045-0.018,0.091-0.028,0.135c-0.661,2.931-4.014,4.592-6.828,4.345
				c-0.401-0.035-0.787-0.109-1.16-0.211c-0.771,1.258-1.918,3.884-0.725,7.104c0.124,0.334,0.287,0.643,0.477,0.931
				c0.827-0.68,9.713-8.255,9.713-8.255l-9.221,8.883c2.772,2.975,9.301,2.567,11.569-2.947
				C347.937,52.879,345.109,49.12,341.907,48.332z"/>
			<path style="fill:#92E3A9;" d="M337.389,38.083c-4.781-1.05-9.056,1.121-8.976,6.105c0.036,2.246,1.031,4.418,2.659,5.854
				l4.877-6.761l-4.143,7.326c0.386,0.26,0.796,0.486,1.233,0.663c0.591,0.239,1.225,0.396,1.895,0.455
				c2.814,0.247,6.166-1.414,6.827-4.345C342.499,44.108,342.17,39.134,337.389,38.083z"/>
			<path style="fill:#92E3A9;" d="M331.812,20.731c0,0-0.493,0.145-3.548,1.642c-3.056,1.497-5.475,6.335-3.061,10.475
				c1.373,2.354,2.967,3.247,4.088,3.58l1.224-11.888l-0.494,12.046c0.433,0.057,0.698,0.026,0.698,0.026
				c1.987-0.206,5.131-2.58,5.429-7.455C336.447,24.281,331.812,20.731,331.812,20.731z"/>
			<path style="fill:#92E3A9;" d="M317.844,31.541l9.222,7.376c0.168-0.557,0.089-1.036,0.089-1.036
				c-0.423-4.222-4.638-6.667-7.418-7.551c-2.78-0.883-4.71,0.692-2.923,4.734c1.787,4.041,6.48,5.968,8.576,5.383
				c0.609-0.17,1.008-0.459,1.275-0.782L317.844,31.541z"/>
			<path style="fill:#92E3A9;" d="M324.193,40.998c-1.992,0.067-5.217-1.357-7.095-4.097c-1.936-0.038-3.543,0.878-4.061,3.306
				c-0.941,4.403,2.241,9.01,6.831,8.447c2.007-0.246,3.161-0.933,3.825-1.629l-8.206-7.486l8.781,6.689
				c0.3-0.57,0.321-1.011,0.321-1.011S325.11,43.056,324.193,40.998z"/>
			<path style="fill:#92E3A9;" d="M324.144,65.468c-0.625,0.294-1.396,0.476-2.357,0.565c-2.999,0.278-6.057-2.071-7.576-4.833
				c-1.841,0.296-3.311,1.285-3.667,3.3c-0.91,5.15,3.858,11.936,8.676,10.865c1.521-0.338,2.593-0.98,3.351-1.701l-10.522-10.119
				l11.134,9.438c1.07-1.392,1.185-2.817,1.185-2.817S325.275,67.808,324.144,65.468z"/>
			<path style="fill:#92E3A9;" d="M345.309,76.038c-3.535-4.094-7.749-0.43-7.749-0.43s-2.583,0.854-3.555,4.51
				c-0.311,1.169-0.25,2.348,0.128,3.369l10.641-6.197l-10.382,6.778c0.967,1.837,3.081,2.959,5.973,2.148
				C345.049,84.902,348.843,80.132,345.309,76.038z"/>
		</g>
		<rect x="321.763" y="91.518" style="fill:#263238;" width="14.728" height="21.809"/>
	</g>
</g>
<g id="Bookshelf">
	<g>
		<rect x="304.795" y="113.152" style="fill:#92E3A9;stroke:#263238;stroke-miterlimit:10;" width="194.283" height="359.228"/>
		
			<rect x="308.826" y="117.702" style="fill:#263238;stroke:#263238;stroke-linecap:round;stroke-linejoin:round;stroke-miterlimit:10;" width="162.843" height="349.214"/>
		<g>
			<rect x="308.826" y="171.864" style="fill:#92E3A9;stroke:#263238;stroke-miterlimit:10;" width="162.843" height="5.148"/>
			<rect x="308.826" y="231.404" style="fill:#92E3A9;stroke:#263238;stroke-miterlimit:10;" width="162.843" height="5.147"/>
			<rect x="415.727" y="117.755" style="fill:#92E3A9;stroke:#263238;stroke-miterlimit:10;" width="3.464" height="54.089"/>
			<rect x="360.371" y="117.755" style="fill:#92E3A9;stroke:#263238;stroke-miterlimit:10;" width="3.464" height="54.089"/>
			<rect x="415.727" y="236.606" style="fill:#92E3A9;stroke:#263238;stroke-miterlimit:10;" width="3.464" height="54.089"/>
			<rect x="360.371" y="236.606" style="fill:#92E3A9;stroke:#263238;stroke-miterlimit:10;" width="3.464" height="54.089"/>
			<rect x="387.78" y="177.303" style="fill:#92E3A9;stroke:#263238;stroke-miterlimit:10;" width="3.464" height="54.089"/>
			<rect x="308.826" y="290.707" style="fill:#92E3A9;stroke:#263238;stroke-miterlimit:10;" width="162.843" height="5.147"/>
			<rect x="308.826" y="350.048" style="fill:#92E3A9;stroke:#263238;stroke-miterlimit:10;" width="162.843" height="118.68"/>
			<rect x="387.78" y="295.947" style="fill:#92E3A9;stroke:#263238;stroke-miterlimit:10;" width="3.464" height="54.089"/>
		</g>
		<polygon style="fill:#263238;stroke:#263238;stroke-linecap:round;stroke-linejoin:round;stroke-miterlimit:10;" points="
			475.659,113.118 475.659,472.303 499.078,472.381 499.078,113.118 		"/>
		<g>
			<g>
				<rect x="421.59" y="121.958" style="fill:#FFFFFF;stroke:#263238;stroke-miterlimit:10;" width="8.36" height="49.773"/>
				<rect x="421.59" y="161.038" style="fill:#FFFFFF;stroke:#263238;stroke-miterlimit:10;" width="8.36" height="4.083"/>
				<rect x="421.59" y="127.013" style="fill:#FFFFFF;stroke:#263238;stroke-miterlimit:10;" width="8.36" height="4.083"/>
			</g>
			<g>
				<rect x="430.145" y="121.958" style="fill:#FFFFFF;stroke:#263238;stroke-miterlimit:10;" width="8.36" height="49.773"/>
				<rect x="430.145" y="161.038" style="fill:#FFFFFF;stroke:#263238;stroke-miterlimit:10;" width="8.36" height="4.083"/>
				<rect x="430.145" y="127.013" style="fill:#FFFFFF;stroke:#263238;stroke-miterlimit:10;" width="8.36" height="4.083"/>
			</g>
			<g>
				<rect x="438.699" y="121.958" style="fill:#FFFFFF;stroke:#263238;stroke-miterlimit:10;" width="8.36" height="49.773"/>
				<rect x="438.699" y="161.038" style="fill:#FFFFFF;stroke:#263238;stroke-miterlimit:10;" width="8.36" height="4.083"/>
				<rect x="438.699" y="127.013" style="fill:#FFFFFF;stroke:#263238;stroke-miterlimit:10;" width="8.36" height="4.083"/>
			</g>
			<g>
				<rect x="447.254" y="121.958" style="fill:#FFFFFF;stroke:#263238;stroke-miterlimit:10;" width="8.36" height="49.773"/>
				<rect x="455.54" y="121.958" style="fill:#FFFFFF;stroke:#263238;stroke-miterlimit:10;" width="14.002" height="49.773"/>
				<rect x="447.254" y="161.038" style="fill:#FFFFFF;stroke:#263238;stroke-miterlimit:10;" width="8.36" height="4.083"/>
				<rect x="447.254" y="127.013" style="fill:#FFFFFF;stroke:#263238;stroke-miterlimit:10;" width="8.36" height="4.083"/>
			</g>
		</g>
		<g>
			<g>
				<rect x="365.658" y="121.958" style="fill:#FFFFFF;stroke:#263238;stroke-miterlimit:10;" width="8.36" height="49.773"/>
				<rect x="365.658" y="161.038" style="fill:#FFFFFF;stroke:#263238;stroke-miterlimit:10;" width="8.36" height="4.083"/>
				<rect x="365.658" y="127.013" style="fill:#FFFFFF;stroke:#263238;stroke-miterlimit:10;" width="8.36" height="4.083"/>
			</g>
			<g>
				<rect x="374.213" y="121.958" style="fill:#FFFFFF;stroke:#263238;stroke-miterlimit:10;" width="8.36" height="49.773"/>
				<rect x="374.213" y="161.038" style="fill:#FFFFFF;stroke:#263238;stroke-miterlimit:10;" width="8.36" height="4.083"/>
				<rect x="374.213" y="127.013" style="fill:#FFFFFF;stroke:#263238;stroke-miterlimit:10;" width="8.36" height="4.083"/>
			</g>
			<g>
				<rect x="382.768" y="121.958" style="fill:#FFFFFF;stroke:#263238;stroke-miterlimit:10;" width="8.36" height="49.773"/>
				<rect x="382.768" y="161.038" style="fill:#FFFFFF;stroke:#263238;stroke-miterlimit:10;" width="8.36" height="4.083"/>
				<rect x="382.768" y="127.013" style="fill:#FFFFFF;stroke:#263238;stroke-miterlimit:10;" width="8.36" height="4.083"/>
			</g>
			<g>
				<rect x="391.322" y="121.958" style="fill:#FFFFFF;stroke:#263238;stroke-miterlimit:10;" width="8.36" height="49.773"/>
				<rect x="399.608" y="121.958" style="fill:#FFFFFF;stroke:#263238;stroke-miterlimit:10;" width="14.002" height="49.773"/>
				<rect x="391.322" y="161.038" style="fill:#FFFFFF;stroke:#263238;stroke-miterlimit:10;" width="8.36" height="4.083"/>
				<rect x="391.322" y="127.013" style="fill:#FFFFFF;stroke:#263238;stroke-miterlimit:10;" width="8.36" height="4.083"/>
			</g>
		</g>
		<g>
			<g>
				<rect x="365.658" y="240.993" style="fill:#FFFFFF;stroke:#263238;stroke-miterlimit:10;" width="8.36" height="49.773"/>
				<rect x="365.658" y="280.072" style="fill:#FFFFFF;stroke:#263238;stroke-miterlimit:10;" width="8.36" height="4.083"/>
				<rect x="365.658" y="246.048" style="fill:#FFFFFF;stroke:#263238;stroke-miterlimit:10;" width="8.36" height="4.083"/>
			</g>
			<g>
				<rect x="374.213" y="240.993" style="fill:#FFFFFF;stroke:#263238;stroke-miterlimit:10;" width="8.36" height="49.773"/>
				<rect x="374.213" y="280.072" style="fill:#FFFFFF;stroke:#263238;stroke-miterlimit:10;" width="8.36" height="4.083"/>
				<rect x="374.213" y="246.048" style="fill:#FFFFFF;stroke:#263238;stroke-miterlimit:10;" width="8.36" height="4.083"/>
			</g>
			<g>
				<rect x="382.768" y="240.993" style="fill:#FFFFFF;stroke:#263238;stroke-miterlimit:10;" width="8.36" height="49.773"/>
				<rect x="382.768" y="280.072" style="fill:#FFFFFF;stroke:#263238;stroke-miterlimit:10;" width="8.36" height="4.083"/>
				<rect x="382.768" y="246.048" style="fill:#FFFFFF;stroke:#263238;stroke-miterlimit:10;" width="8.36" height="4.083"/>
			</g>
			<g>
				<rect x="391.322" y="240.993" style="fill:#FFFFFF;stroke:#263238;stroke-miterlimit:10;" width="8.36" height="49.773"/>
				<rect x="399.608" y="240.993" style="fill:#FFFFFF;stroke:#263238;stroke-miterlimit:10;" width="14.002" height="49.773"/>
				<rect x="391.322" y="280.072" style="fill:#FFFFFF;stroke:#263238;stroke-miterlimit:10;" width="8.36" height="4.083"/>
				<rect x="391.322" y="246.048" style="fill:#FFFFFF;stroke:#263238;stroke-miterlimit:10;" width="8.36" height="4.083"/>
			</g>
		</g>
		<g>
			<g>
				<rect x="420.873" y="240.993" style="fill:#FFFFFF;stroke:#263238;stroke-miterlimit:10;" width="8.36" height="49.773"/>
				<rect x="420.873" y="280.072" style="fill:#FFFFFF;stroke:#263238;stroke-miterlimit:10;" width="8.36" height="4.083"/>
				<rect x="420.873" y="246.048" style="fill:#FFFFFF;stroke:#263238;stroke-miterlimit:10;" width="8.36" height="4.083"/>
			</g>
			<g>
				<rect x="429.428" y="240.993" style="fill:#FFFFFF;stroke:#263238;stroke-miterlimit:10;" width="8.36" height="49.773"/>
				<rect x="429.428" y="280.072" style="fill:#FFFFFF;stroke:#263238;stroke-miterlimit:10;" width="8.36" height="4.083"/>
				<rect x="429.428" y="246.048" style="fill:#FFFFFF;stroke:#263238;stroke-miterlimit:10;" width="8.36" height="4.083"/>
			</g>
			<g>
				<rect x="437.982" y="240.993" style="fill:#FFFFFF;stroke:#263238;stroke-miterlimit:10;" width="8.36" height="49.773"/>
				<rect x="437.982" y="280.072" style="fill:#FFFFFF;stroke:#263238;stroke-miterlimit:10;" width="8.36" height="4.083"/>
				<rect x="437.982" y="246.048" style="fill:#FFFFFF;stroke:#263238;stroke-miterlimit:10;" width="8.36" height="4.083"/>
			</g>
			<g>
				<rect x="446.537" y="240.993" style="fill:#FFFFFF;stroke:#263238;stroke-miterlimit:10;" width="8.36" height="49.773"/>
				<rect x="454.823" y="240.993" style="fill:#FFFFFF;stroke:#263238;stroke-miterlimit:10;" width="14.002" height="49.773"/>
				<rect x="446.537" y="280.072" style="fill:#FFFFFF;stroke:#263238;stroke-miterlimit:10;" width="8.36" height="4.083"/>
				<rect x="446.537" y="246.048" style="fill:#FFFFFF;stroke:#263238;stroke-miterlimit:10;" width="8.36" height="4.083"/>
			</g>
		</g>
		<g>
			<g>
				<rect x="310.802" y="240.993" style="fill:#FFFFFF;stroke:#263238;stroke-miterlimit:10;" width="8.36" height="49.773"/>
				<rect x="310.802" y="280.072" style="fill:#FFFFFF;stroke:#263238;stroke-miterlimit:10;" width="8.36" height="4.083"/>
				<rect x="310.802" y="246.048" style="fill:#FFFFFF;stroke:#263238;stroke-miterlimit:10;" width="8.36" height="4.083"/>
			</g>
			<g>
				<rect x="319.357" y="240.993" style="fill:#FFFFFF;stroke:#263238;stroke-miterlimit:10;" width="8.36" height="49.773"/>
				<rect x="319.357" y="280.072" style="fill:#FFFFFF;stroke:#263238;stroke-miterlimit:10;" width="8.36" height="4.083"/>
				<rect x="319.357" y="246.048" style="fill:#FFFFFF;stroke:#263238;stroke-miterlimit:10;" width="8.36" height="4.083"/>
			</g>
			<g>
				<rect x="327.911" y="240.993" style="fill:#FFFFFF;stroke:#263238;stroke-miterlimit:10;" width="8.36" height="49.773"/>
				<rect x="327.911" y="280.072" style="fill:#FFFFFF;stroke:#263238;stroke-miterlimit:10;" width="8.36" height="4.083"/>
				<rect x="327.911" y="246.048" style="fill:#FFFFFF;stroke:#263238;stroke-miterlimit:10;" width="8.36" height="4.083"/>
			</g>
			<g>
				<rect x="336.466" y="240.993" style="fill:#FFFFFF;stroke:#263238;stroke-miterlimit:10;" width="8.36" height="49.773"/>
				<rect x="344.752" y="240.993" style="fill:#FFFFFF;stroke:#263238;stroke-miterlimit:10;" width="14.002" height="49.773"/>
				<rect x="336.466" y="280.072" style="fill:#FFFFFF;stroke:#263238;stroke-miterlimit:10;" width="8.36" height="4.083"/>
				<rect x="336.466" y="246.048" style="fill:#FFFFFF;stroke:#263238;stroke-miterlimit:10;" width="8.36" height="4.083"/>
			</g>
		</g>
		<g>
			<g>
				<rect x="309.726" y="121.958" style="fill:#FFFFFF;stroke:#263238;stroke-miterlimit:10;" width="8.36" height="49.773"/>
				<rect x="309.726" y="161.038" style="fill:#FFFFFF;stroke:#263238;stroke-miterlimit:10;" width="8.36" height="4.083"/>
				<rect x="309.726" y="127.013" style="fill:#FFFFFF;stroke:#263238;stroke-miterlimit:10;" width="8.36" height="4.083"/>
			</g>
			<g>
				<rect x="318.281" y="121.958" style="fill:#FFFFFF;stroke:#263238;stroke-miterlimit:10;" width="8.36" height="49.773"/>
				<rect x="318.281" y="161.038" style="fill:#FFFFFF;stroke:#263238;stroke-miterlimit:10;" width="8.36" height="4.083"/>
				<rect x="318.281" y="127.013" style="fill:#FFFFFF;stroke:#263238;stroke-miterlimit:10;" width="8.36" height="4.083"/>
			</g>
			<g>
				<rect x="326.836" y="121.958" style="fill:#FFFFFF;stroke:#263238;stroke-miterlimit:10;" width="8.36" height="49.773"/>
				<rect x="326.836" y="161.038" style="fill:#FFFFFF;stroke:#263238;stroke-miterlimit:10;" width="8.36" height="4.083"/>
				<rect x="326.836" y="127.013" style="fill:#FFFFFF;stroke:#263238;stroke-miterlimit:10;" width="8.36" height="4.083"/>
			</g>
			<g>
				<rect x="335.391" y="121.958" style="fill:#FFFFFF;stroke:#263238;stroke-miterlimit:10;" width="8.36" height="49.773"/>
				<rect x="343.676" y="121.958" style="fill:#FFFFFF;stroke:#263238;stroke-miterlimit:10;" width="14.002" height="49.773"/>
				<rect x="335.391" y="161.038" style="fill:#FFFFFF;stroke:#263238;stroke-miterlimit:10;" width="8.36" height="4.083"/>
				<rect x="335.391" y="127.013" style="fill:#FFFFFF;stroke:#263238;stroke-miterlimit:10;" width="8.36" height="4.083"/>
			</g>
		</g>
		<g>
			<g>
				<rect x="334.465" y="181.274" style="fill:#FFFFFF;stroke:#263238;stroke-miterlimit:10;" width="8.36" height="49.773"/>
				<rect x="334.465" y="220.354" style="fill:#FFFFFF;stroke:#263238;stroke-miterlimit:10;" width="8.36" height="4.083"/>
				<rect x="334.465" y="186.329" style="fill:#FFFFFF;stroke:#263238;stroke-miterlimit:10;" width="8.36" height="4.083"/>
			</g>
			<g>
				<rect x="326.219" y="181.274" style="fill:#FFFFFF;stroke:#263238;stroke-miterlimit:10;" width="8.36" height="49.773"/>
				<rect x="326.219" y="220.354" style="fill:#FFFFFF;stroke:#263238;stroke-miterlimit:10;" width="8.36" height="4.083"/>
				<rect x="326.219" y="186.329" style="fill:#FFFFFF;stroke:#263238;stroke-miterlimit:10;" width="8.36" height="4.083"/>
			</g>
			<g>
				<rect x="317.973" y="181.274" style="fill:#FFFFFF;stroke:#263238;stroke-miterlimit:10;" width="8.36" height="49.773"/>
				<rect x="317.973" y="220.354" style="fill:#FFFFFF;stroke:#263238;stroke-miterlimit:10;" width="8.36" height="4.083"/>
				<rect x="317.973" y="186.329" style="fill:#FFFFFF;stroke:#263238;stroke-miterlimit:10;" width="8.36" height="4.083"/>
			</g>
			<g>
				<rect x="309.726" y="181.274" style="fill:#FFFFFF;stroke:#263238;stroke-miterlimit:10;" width="8.36" height="49.773"/>
				<rect x="309.726" y="220.354" style="fill:#FFFFFF;stroke:#263238;stroke-miterlimit:10;" width="8.36" height="4.083"/>
				<rect x="309.726" y="186.329" style="fill:#FFFFFF;stroke:#263238;stroke-miterlimit:10;" width="8.36" height="4.083"/>
			</g>
			<g>
				<rect x="343.02" y="181.274" style="fill:#FFFFFF;stroke:#263238;stroke-miterlimit:10;" width="8.36" height="49.773"/>
				<rect x="343.02" y="220.354" style="fill:#FFFFFF;stroke:#263238;stroke-miterlimit:10;" width="8.36" height="4.083"/>
				<rect x="343.02" y="186.329" style="fill:#FFFFFF;stroke:#263238;stroke-miterlimit:10;" width="8.36" height="4.083"/>
			</g>
			<g>
				<rect x="351.575" y="181.274" style="fill:#FFFFFF;stroke:#263238;stroke-miterlimit:10;" width="8.36" height="49.773"/>
				<rect x="351.575" y="220.354" style="fill:#FFFFFF;stroke:#263238;stroke-miterlimit:10;" width="8.36" height="4.083"/>
				<rect x="351.575" y="186.329" style="fill:#FFFFFF;stroke:#263238;stroke-miterlimit:10;" width="8.36" height="4.083"/>
			</g>
			<g>
				<rect x="360.13" y="181.274" style="fill:#FFFFFF;stroke:#263238;stroke-miterlimit:10;" width="8.36" height="49.773"/>
				<rect x="368.415" y="181.274" style="fill:#FFFFFF;stroke:#263238;stroke-miterlimit:10;" width="14.002" height="49.773"/>
				<rect x="360.13" y="220.354" style="fill:#FFFFFF;stroke:#263238;stroke-miterlimit:10;" width="8.36" height="4.083"/>
				<rect x="360.13" y="186.329" style="fill:#FFFFFF;stroke:#263238;stroke-miterlimit:10;" width="8.36" height="4.083"/>
			</g>
		</g>
		<g>
			<g>
				<g>
					<rect x="393.914" y="181.274" style="fill:#FFFFFF;stroke:#263238;stroke-miterlimit:10;" width="8.36" height="49.773"/>
					<rect x="393.914" y="220.354" style="fill:#FFFFFF;stroke:#263238;stroke-miterlimit:10;" width="8.36" height="4.083"/>
					<rect x="393.914" y="186.329" style="fill:#FFFFFF;stroke:#263238;stroke-miterlimit:10;" width="8.36" height="4.083"/>
				</g>
				<g>
					<rect x="402.469" y="181.274" style="fill:#FFFFFF;stroke:#263238;stroke-miterlimit:10;" width="8.36" height="49.773"/>
					<rect x="402.469" y="220.354" style="fill:#FFFFFF;stroke:#263238;stroke-miterlimit:10;" width="8.36" height="4.083"/>
					<rect x="402.469" y="186.329" style="fill:#FFFFFF;stroke:#263238;stroke-miterlimit:10;" width="8.36" height="4.083"/>
				</g>
			</g>
			<g>
				<g>
					
						<rect x="429.622" y="180.901" transform="matrix(0.9212 -0.389 0.389 0.9212 -46.0001 184.9989)" style="fill:#FFFFFF;stroke:#263238;stroke-miterlimit:10;" width="8.464" height="50.391"/>
					
						<rect x="436.015" y="219.171" transform="matrix(0.9212 -0.389 0.389 0.9212 -51.3866 188.6785)" style="fill:#FFFFFF;stroke:#263238;stroke-miterlimit:10;" width="8.464" height="4.134"/>
					
						<rect x="422.616" y="187.437" transform="matrix(0.9212 -0.389 0.389 0.9212 -40.0977 180.9689)" style="fill:#FFFFFF;stroke:#263238;stroke-miterlimit:10;" width="8.464" height="4.134"/>
				</g>
				<polygon style="fill:#FFFFFF;stroke:#263238;stroke-miterlimit:10;" points="439.756,230.954 457.211,230.954 465.064,227.684 
					447.554,227.661 				"/>
				<polygon style="fill:#FFFFFF;stroke:#263238;stroke-miterlimit:10;" points="427.952,181.239 444.344,181.239 465.064,227.684 
					447.554,227.661 				"/>
				<g>
					<g>
						<g>
							<rect x="410.717" y="181.274" style="fill:#FFFFFF;stroke:#263238;stroke-miterlimit:10;" width="8.36" height="49.773"/>
							<rect x="410.717" y="220.354" style="fill:#FFFFFF;stroke:#263238;stroke-miterlimit:10;" width="8.36" height="4.083"/>
							<rect x="410.717" y="186.329" style="fill:#FFFFFF;stroke:#263238;stroke-miterlimit:10;" width="8.36" height="4.083"/>
						</g>
					</g>
					<polygon style="fill:#FFFFFF;stroke:#263238;stroke-miterlimit:10;" points="419.077,181.274 427.952,181.274 420.155,184.532 
						439.756,230.954 419.077,230.954 					"/>
				</g>
			</g>
		</g>
		<g>
			<g>
				<rect x="334.465" y="300.086" style="fill:#FFFFFF;stroke:#263238;stroke-miterlimit:10;" width="8.36" height="49.773"/>
				<rect x="334.465" y="339.166" style="fill:#FFFFFF;stroke:#263238;stroke-miterlimit:10;" width="8.36" height="4.083"/>
				<rect x="334.465" y="305.142" style="fill:#FFFFFF;stroke:#263238;stroke-miterlimit:10;" width="8.36" height="4.083"/>
			</g>
			<g>
				<rect x="326.219" y="300.086" style="fill:#FFFFFF;stroke:#263238;stroke-miterlimit:10;" width="8.36" height="49.773"/>
				<rect x="326.219" y="339.166" style="fill:#FFFFFF;stroke:#263238;stroke-miterlimit:10;" width="8.36" height="4.083"/>
				<rect x="326.219" y="305.142" style="fill:#FFFFFF;stroke:#263238;stroke-miterlimit:10;" width="8.36" height="4.083"/>
			</g>
			<g>
				<rect x="317.973" y="300.086" style="fill:#FFFFFF;stroke:#263238;stroke-miterlimit:10;" width="8.36" height="49.773"/>
				<rect x="317.973" y="339.166" style="fill:#FFFFFF;stroke:#263238;stroke-miterlimit:10;" width="8.36" height="4.083"/>
				<rect x="317.973" y="305.142" style="fill:#FFFFFF;stroke:#263238;stroke-miterlimit:10;" width="8.36" height="4.083"/>
			</g>
			<g>
				<rect x="309.726" y="300.086" style="fill:#FFFFFF;stroke:#263238;stroke-miterlimit:10;" width="8.36" height="49.773"/>
				<rect x="309.726" y="339.166" style="fill:#FFFFFF;stroke:#263238;stroke-miterlimit:10;" width="8.36" height="4.083"/>
				<rect x="309.726" y="305.142" style="fill:#FFFFFF;stroke:#263238;stroke-miterlimit:10;" width="8.36" height="4.083"/>
			</g>
			<g>
				<rect x="343.02" y="300.086" style="fill:#FFFFFF;stroke:#263238;stroke-miterlimit:10;" width="8.36" height="49.773"/>
				<rect x="343.02" y="339.166" style="fill:#FFFFFF;stroke:#263238;stroke-miterlimit:10;" width="8.36" height="4.083"/>
				<rect x="343.02" y="305.142" style="fill:#FFFFFF;stroke:#263238;stroke-miterlimit:10;" width="8.36" height="4.083"/>
			</g>
			<g>
				<rect x="351.575" y="300.086" style="fill:#FFFFFF;stroke:#263238;stroke-miterlimit:10;" width="8.36" height="49.773"/>
				<rect x="351.575" y="339.166" style="fill:#FFFFFF;stroke:#263238;stroke-miterlimit:10;" width="8.36" height="4.083"/>
				<rect x="351.575" y="305.142" style="fill:#FFFFFF;stroke:#263238;stroke-miterlimit:10;" width="8.36" height="4.083"/>
			</g>
			<g>
				<rect x="360.13" y="300.086" style="fill:#FFFFFF;stroke:#263238;stroke-miterlimit:10;" width="8.36" height="49.773"/>
				<rect x="368.415" y="300.086" style="fill:#FFFFFF;stroke:#263238;stroke-miterlimit:10;" width="14.002" height="49.773"/>
				<rect x="360.13" y="339.166" style="fill:#FFFFFF;stroke:#263238;stroke-miterlimit:10;" width="8.36" height="4.083"/>
				<rect x="360.13" y="305.142" style="fill:#FFFFFF;stroke:#263238;stroke-miterlimit:10;" width="8.36" height="4.083"/>
			</g>
		</g>
		<g>
			<g>
				<g>
					<rect x="393.914" y="300.086" style="fill:#FFFFFF;stroke:#263238;stroke-miterlimit:10;" width="8.36" height="49.773"/>
					<rect x="393.914" y="339.166" style="fill:#FFFFFF;stroke:#263238;stroke-miterlimit:10;" width="8.36" height="4.083"/>
					<rect x="393.914" y="305.142" style="fill:#FFFFFF;stroke:#263238;stroke-miterlimit:10;" width="8.36" height="4.083"/>
				</g>
				<g>
					<rect x="402.469" y="300.086" style="fill:#FFFFFF;stroke:#263238;stroke-miterlimit:10;" width="8.36" height="49.773"/>
					<rect x="402.469" y="339.166" style="fill:#FFFFFF;stroke:#263238;stroke-miterlimit:10;" width="8.36" height="4.083"/>
					<rect x="402.469" y="305.142" style="fill:#FFFFFF;stroke:#263238;stroke-miterlimit:10;" width="8.36" height="4.083"/>
				</g>
			</g>
			<g>
				<g>
					
						<rect x="429.622" y="299.714" transform="matrix(0.9212 -0.389 0.389 0.9212 -92.2176 194.3566)" style="fill:#FFFFFF;stroke:#263238;stroke-miterlimit:10;" width="8.464" height="50.391"/>
					
						<rect x="436.015" y="337.984" transform="matrix(0.9212 -0.389 0.389 0.9212 -97.604 198.0361)" style="fill:#FFFFFF;stroke:#263238;stroke-miterlimit:10;" width="8.464" height="4.134"/>
					
						<rect x="422.616" y="306.25" transform="matrix(0.9212 -0.389 0.389 0.9212 -86.3156 190.3268)" style="fill:#FFFFFF;stroke:#263238;stroke-miterlimit:10;" width="8.464" height="4.134"/>
				</g>
				<polygon style="fill:#FFFFFF;stroke:#263238;stroke-miterlimit:10;" points="439.756,349.767 457.211,349.767 465.064,346.496 
					447.554,346.474 				"/>
				<polygon style="fill:#FFFFFF;stroke:#263238;stroke-miterlimit:10;" points="427.952,300.052 444.344,300.052 465.064,346.496 
					447.554,346.474 				"/>
				<g>
					<g>
						<g>
							<rect x="410.717" y="300.086" style="fill:#FFFFFF;stroke:#263238;stroke-miterlimit:10;" width="8.36" height="49.773"/>
							<rect x="410.717" y="339.166" style="fill:#FFFFFF;stroke:#263238;stroke-miterlimit:10;" width="8.36" height="4.083"/>
							<rect x="410.717" y="305.142" style="fill:#FFFFFF;stroke:#263238;stroke-miterlimit:10;" width="8.36" height="4.083"/>
						</g>
					</g>
					<polygon style="fill:#FFFFFF;stroke:#263238;stroke-miterlimit:10;" points="419.077,300.086 427.952,300.086 420.155,303.345 
						439.756,349.767 419.077,349.767 					"/>
				</g>
			</g>
		</g>
		<line style="fill:none;stroke:#263238;stroke-miterlimit:10;" x1="387.78" y1="350.036" x2="387.78" y2="466.739"/>
		<line style="fill:none;stroke:#263238;stroke-miterlimit:10;" x1="310.148" y1="364.49" x2="471.632" y2="364.49"/>
		<g>
			
				<line style="fill:none;stroke:#263238;stroke-width:2;stroke-miterlimit:10;" x1="343.291" y1="374.362" x2="343.291" y2="395.517"/>
			
				<line style="fill:none;stroke:#263238;stroke-width:2;stroke-miterlimit:10;" x1="350.342" y1="374.362" x2="350.342" y2="395.517"/>
		</g>
		<g>
			
				<line style="fill:none;stroke:#263238;stroke-width:2;stroke-miterlimit:10;" x1="424.385" y1="374.362" x2="424.385" y2="395.517"/>
			
				<line style="fill:none;stroke:#263238;stroke-width:2;stroke-miterlimit:10;" x1="431.437" y1="374.362" x2="431.437" y2="395.517"/>
		</g>
	</g>
</g>
<g id="Pictures">
	<g>
		<polyline style="fill:none;stroke:#263238;stroke-miterlimit:10;" points="516.638,115.011 516.638,79.134 568.823,79.134 		"/>
		<polyline style="fill:none;stroke:#263238;stroke-miterlimit:10;" points="572.663,79.134 594.638,79.134 594.638,168.134 
			516.638,168.134 516.638,120.453 		"/>
		<polyline style="fill:none;stroke:#263238;stroke-miterlimit:10;" points="566.262,156.134 527.155,156.134 527.155,91.134 
			584.121,91.134 584.121,156.134 570.743,156.134 		"/>
		<rect x="544.683" y="111.134" style="fill:none;stroke:#263238;stroke-miterlimit:10;" width="21.91" height="25"/>
	</g>
	<g>
		<polyline style="fill:none;stroke:#263238;stroke-miterlimit:10;" points="601.566,156.488 601.566,134.11 634.115,134.11 		"/>
		<polyline style="fill:none;stroke:#263238;stroke-miterlimit:10;" points="636.511,134.11 650.217,134.11 650.217,189.622 
			601.566,189.622 601.566,159.881 		"/>
		<polyline style="fill:none;stroke:#263238;stroke-miterlimit:10;" points="632.518,182.137 608.126,182.137 608.126,141.594 
			643.658,141.594 643.658,182.137 635.313,182.137 		"/>
		<rect x="619.059" y="154.069" style="fill:none;stroke:#263238;stroke-miterlimit:10;" width="13.666" height="15.593"/>
	</g>
</g>
<g id="Floor">
	
		<line style="fill:none;stroke:#263238;stroke-linecap:round;stroke-linejoin:round;stroke-miterlimit:10;" x1="85.797" y1="472.381" x2="649.797" y2="472.381"/>
</g>
<g id="Character_1_">
	<g>
		<path style="fill:#263238;stroke:#263238;stroke-miterlimit:10;" d="M125.797,332.381c0,0-6-80-3-89c3-9,21.5-8.5,25-8.5
			s76.5,0,87,5s12,128,12,128h-116L125.797,332.381z"/>
		<g>
			<path style="fill:#263238;stroke:#263238;stroke-miterlimit:10;" d="M250.791,325.881c0,0-12,0-14.404,12
				c-2.404,12,7.056,61.5,7.752,75.5c0.696,14,3.165,33.5,3.165,33.5h12.994h2.006h27.494l9.5-121H250.791z"/>
			<path style="fill:#636363;stroke:#263238;stroke-miterlimit:10;" d="M299.297,325.881c0,0-12,0-15,12s4,61.5,4,75.5
				s1.5,33.5,1.5,33.5h15c0,0,1.5-36,1.5-41s6-57,3-67.5S303.797,326.881,299.297,325.881z"/>
		</g>
		<path style="fill:#92E3A9;stroke:#263238;stroke-miterlimit:10;" d="M172.547,240.131c0,0-39.75,16.25-39.75,18
			s13.5,48.75,18.5,56s8.5,15.25,10,18.25s8,10.5,13.25,10.5s11.5-6.25,28.25-8.75s31.75-2.25,34.75-4.5s-0.75-8.25-1.25-9.5
			s-2.5-5.75-2.5-5.75s16.25,13.5,22.75,14s11.25-2.75,12.25-7s-2.75-14.5-5.25-20s-14.25-14.25-19.5-21s-12-14.75-16.75-20.25
			s-10.5-9.5-15-11.5s-16-7-23.25-7.75S172.547,240.131,172.547,240.131z"/>
		<path style="fill:none;stroke:#263238;stroke-miterlimit:10;" d="M250.464,298.714c0,0-5.667,15.667-3.667,19.667
			s7.333,5.333,7.333,5.333"/>
		<polyline style="fill:none;stroke:#263238;stroke-miterlimit:10;" points="166.547,245.381 199.547,277.381 204.547,253.381 		"/>
		<path style="fill:#FFFFFF;stroke:#263238;stroke-miterlimit:10;" d="M252.047,300.631c0,0,8,5.75,10.75,3.75s2-5.75,0.25-9.75
			s-7.5-6.25-9.75-4.5S250.297,298.881,252.047,300.631z"/>
		<path style="fill:#FFFFFF;stroke:#263238;stroke-miterlimit:10;" d="M170.047,229.631l1.25,15l26.5,26l4-18.5l1.75-7.75
			c0,0-17.25-3-22.75-6.75S170.047,229.631,170.047,229.631z"/>
		<path style="fill:#263238;stroke:#263238;stroke-miterlimit:10;" d="M203.547,244.381c0,0-17.25-3-22.75-6.75s-10.75-8-10.75-8
			l1.25,15l6.692,6.566c5.214,1.474,10.403,2.187,13.926,0.823c5.799-2.245,9.272-4.263,11.16-5.549L203.547,244.381z"/>
		<g>
			<path style="fill:#263238;stroke:#263238;stroke-miterlimit:10;" d="M162.131,218.047c0,0-4.667-21.333-4.667-25
				c0-3.667,12.667-22.333,30-19.333c17.333,3,27,13,27.667,16s-2,9-2,9s1,3.333,1,5.333s-3,10.667-3,10.667l-1-9
				c0,0-8.333,2.333-13,2.333s-12.667-3-12.667-3s1.667,5.333,0,8c-1.667,2.667-6.667,5-6.667,5s-0.667,5.333-2.667,5.333
				s-6-0.667-7.333-1C166.464,222.047,162.131,218.047,162.131,218.047z"/>
			<path style="fill:#FFFFFF;stroke:#263238;stroke-miterlimit:10;" d="M169.797,220.381c0,0-0.667-8-7.333-6
				c-6.667,2-2.333,9.333,1.333,13c3.667,3.667,4.667,1,4.667,1s1,7.667,6,12c5,4.333,12.667,12.333,20.667,11.333
				s13.667-11,14.667-18.333c1-7.333,1.667-24.667,1.667-26.667s-1.333-6.667-1.333-6.667s-7,5-13.333,3.667c-6.333-1.333-13-4-16-4
				s-2.333,4.333-1.333,5.667c1,1.333,3.667,4,0.667,5.667c-3,1.667-7,3.333-7,3.333v7L169.797,220.381z"/>
			<polyline style="fill:none;stroke:#263238;stroke-miterlimit:10;" points="201.695,216.741 200.053,234.806 191.841,232.434 			
				"/>
			<path style="fill:#263238;stroke:#263238;stroke-miterlimit:10;" d="M194.761,233.894c0,0-4.014,0-6.204,0.182
				c-2.19,0.183-3.102,0.365-4.014,0.183c-0.912-0.183-2.007-0.912-0.182,0.912c1.825,1.825,7.299,4.014,10.219,4.379
				c2.92,0.365,4.927-0.547,7.117-2.007c2.19-1.46,4.014-2.92,2.92-3.285c-1.095-0.365-4.562-0.365-4.562-0.365v0.912
				L194.761,233.894z"/>
			<ellipse style="fill:#263238;" cx="189.013" cy="220.482" rx="1.186" ry="2.463"/>
			<path style="fill:#263238;" d="M206.804,220.117c0,1.361-0.531,2.464-1.186,2.464c-0.655,0-1.186-1.103-1.186-2.464
				s0.531-2.463,1.186-2.463C206.273,217.653,206.804,218.756,206.804,220.117z"/>
			<path style="fill:none;stroke:#263238;stroke-miterlimit:10;" d="M184.542,216.741c0,0,4.927-3.467,8.941-2.007"/>
			<path style="fill:none;stroke:#263238;stroke-miterlimit:10;" d="M202.607,214.916c0,0,5.109-2.372,7.299-0.182"/>
			<path style="fill:none;stroke:#263238;stroke-miterlimit:10;" d="M192.206,224.952c0,0-1.095,1.277-4.744,2.372"/>
			<path style="fill:none;stroke:#263238;stroke-miterlimit:10;" d="M202.242,224.222c0,0,1.825,1.277,3.467,1.825"/>
		</g>
		<g>
			<path style="fill:#FFFFFF;stroke:#263238;stroke-miterlimit:10;" d="M217.797,271.631l1.75-4.5c0,0,2.25,2.25,8.25,2.25
				s15.75,4.25,15.75,4.25l0.75,1.25c0,0,1.75-5.25,5-6.25s8.5-4.5,9.25-5.5s0.75-1,0.75-1l3.5,3l-15.5,20.5l-29-11.25
				L217.797,271.631z"/>
			<g>
				<polygon style="fill:#FFFFFF;stroke:#263238;stroke-miterlimit:10;" points="218.047,269.881 210.547,309.631 236.547,315.631 
					246.047,277.131 				"/>
				<polygon style="fill:#FFFFFF;stroke:#263238;stroke-miterlimit:10;" points="246.047,277.131 262.797,265.131 252.797,303.631 
					236.547,315.631 				"/>
			</g>
		</g>
		<g>
			<path style="fill:#FFFFFF;stroke:#263238;stroke-miterlimit:10;" d="M185.797,302.381l11.333-4.667c0,0,10-10.667,11-11.667
				s11-2,11-2l11,7.333c0,0,2,1.667,0,2.333c-2,0.667-6.333-1.333-6.333-1.333l-4.333-2.667l-2.667,1.333l5.667,4.667
				c0,0,1.667,4.333,1.667,6.667c0,2.333-1,4.333-1,4.333l-3.333,4.667l-10-5c0,0-6,4.333-7.333,5c-1.333,0.667-14-0.333-14-0.333
				L185.797,302.381z"/>
			<polyline style="fill:none;stroke:#263238;stroke-miterlimit:10;" points="209.711,290.701 213.252,290.026 216.287,290.869 			
				"/>
			<path style="fill:none;stroke:#263238;stroke-miterlimit:10;" d="M206.339,297.276c0,0,7.925-2.192,8.43-2.192
				s6.407,6.07,6.407,6.07l0.674,6.576"/>
			<path style="fill:none;stroke:#263238;stroke-miterlimit:10;" d="M206.676,301.491l6.407,0.169l5.901,3.878
				c0,0,1.119,3.592,0.812,5.843"/>
		</g>
		<g>
			<path style="fill:#92E3A9;stroke:#263238;stroke-miterlimit:10;" d="M139.797,253.381c0,0-7.333,1-8.333,7.333
				c-1,6.333-7.667,59.667-5.667,65.667c2,6,39-4.333,40.333-5c1.333-0.667,22.333-7,22.667-8.333c0.333-1.333,1-12.333-2-13
				c-3-0.667-31.667,0.333-31.667,0.333l-4-34.667"/>
			<line style="fill:none;stroke:#263238;stroke-miterlimit:10;" x1="155.131" y1="300.381" x2="137.464" y2="303.381"/>
			<line style="fill:none;stroke:#263238;stroke-miterlimit:10;" x1="134.131" y1="299.381" x2="149.464" y2="301.381"/>
		</g>
		<g>
			<path style="fill:#FFFFFF;stroke:#263238;stroke-miterlimit:10;" d="M258.297,281.631c0,0-6.75,7-6.5,8.75s3.75-1,4.5-1.75
				s4.25-2.75,4.25-4.75S259.797,279.631,258.297,281.631z"/>
			<path style="fill:#FFFFFF;stroke:#263238;stroke-miterlimit:10;" d="M259.047,285.881c0,0,2,2,2,3.75s-4.25,7.5-6.25,7.5
				s-0.5-4,0.5-5.75S259.047,285.881,259.047,285.881z"/>
			<path style="fill:#FFFFFF;stroke:#263238;stroke-miterlimit:10;" d="M261.047,289.631c0,0,2.5,0.75,2.5,3s-4.75,6-6,6.25
				s-1-2,0-3.75S261.047,289.631,261.047,289.631z"/>
			<path style="fill:#FFFFFF;stroke:#263238;stroke-miterlimit:10;" d="M263.547,292.631c0,0,0.75,1.5,0.5,4s-4,4-5.25,4
				s-1.25-1.75-1.25-1.75S262.547,294.131,263.547,292.631z"/>
		</g>
		<polygon style="fill:#FFFFFF;stroke:#263238;stroke-miterlimit:10;" points="184.922,472.381 180.172,472.381 177.797,440.881 
			187.297,440.881 		"/>
		<polygon style="fill:#FFFFFF;stroke:#263238;stroke-miterlimit:10;" points="141.422,472.381 136.672,472.381 134.297,440.881 
			143.797,440.881 		"/>
		<polygon style="fill:#FFFFFF;stroke:#263238;stroke-miterlimit:10;" points="298.422,472.381 293.672,472.381 291.297,440.881 
			300.797,440.881 		"/>
		<polygon style="fill:#FFFFFF;stroke:#263238;stroke-miterlimit:10;" points="254.922,472.381 250.172,472.381 247.797,440.881 
			257.297,440.881 		"/>
		<rect x="178.297" y="380.607" style="fill:#263238;stroke:#263238;stroke-miterlimit:10;" width="113.5" height="66"/>
		<g>
			<path style="fill:#FFFFFF;stroke:#263238;stroke-miterlimit:10;" d="M374.131,370.047c0,0,12-5,14.667-7
				c2.667-2,6.333,2.333,4.667,7c-1.667,4.667-6,13-12.667,17c-6.667,4-12,7.333-13.333,8.667c-1.333,1.333-1,6.333-6.667,8.333
				c-5.667,2-12.667-2-16.667-8.333c-4-6.333-6.667-10.667-6.667-10.667s0.333-4.667,7-7c6.667-2.333,18-3.333,18-3.333
				L374.131,370.047z"/>
			<path style="fill:#FFFFFF;stroke:#263238;stroke-miterlimit:10;" d="M237.547,329.631c0,0,7.917-1.917,9.917-0.917
				s8.667,7.333,8.667,7.333s40.333,0.667,43.333,2c3,1.333,34,25,40.667,28.333c6.667,3.333,12.333,6.333,12.333,6.333l-5,22v2
				l0.333,3.333c0,0-17.333-5.333-21.667-6.333c-4.333-1-22.333-10.333-24-10.333c-1.667,0-15.333-4-15.333-4s-2-1.333-23.667-3.333
				c-21.667-2-46-4.333-54.667-4.667c-8.667-0.333-20-1-24.333-2.667c-4.333-1.667-12-13.333-13.333-20.333
				c-1.333-7,12.667-13,18.667-15.667c6-2.667,28.333-6,32.333-6S237.547,329.631,237.547,329.631z"/>
			<polyline style="fill:#FFFFFF;stroke:#263238;stroke-miterlimit:10;" points="245.131,339.381 238.464,349.047 247.464,343.047 
							"/>
			<path style="fill:#FFFFFF;stroke:#263238;stroke-miterlimit:10;" d="M347.464,368.381c0,0,9.667-7.667,11.667-10
				c2-2.333,8.667-15,10-19c1.333-4,4.667-6,7-3c2.333,3,4,9,5.333,11.667c1.333,2.667-0.667,15.667-4.667,20
				c-4,4.333-9.531,14.855-10.667,17c-3,5.667-7.667,6.333-10.667,6.667c-3,0.333-10.333-7.667-10.333-7.667L347.464,368.381z"/>
			<g>
				<path style="fill:#FFFFFF;stroke:#263238;stroke-miterlimit:10;" d="M199.131,346.047c0,0,10-2,19-1s27.333,6.667,35,8.667
					s21.333,3,27.667,5.333c6.333,2.333,23,5.333,35.667,5.333c12.667,0,32,1.667,32,1.667s-2.667,19.333-2,23
					c0.667,3.667,2.667,8.667,2.667,8.667s-25.667,2-33,3c-7.333,1-37-3.667-42-5c-5-1.333-12.333-3.333-17-3.333
					c-4.667,0-13.667,2-26.667,3.333c-13,1.333-31.333-4.333-33.667-4.667c-2.333-0.333-10.667-3.333-12.667-4.667
					c-2-1.333-13.667-22-9.667-30.667c4-8.667,9-10,9-10"/>
				<path style="fill:#FFFFFF;stroke:#263238;stroke-miterlimit:10;" d="M260.446,379.681c6.434,1.277,13.244,5.182,22.457,8.788
					c12.284,4.807,36.888,4.369,40.058,4.807c3.169,0.438,11.216,0,11.216,0"/>
				<path style="fill:#FFFFFF;stroke:#263238;stroke-miterlimit:10;" d="M210.872,384.204c1.119,0.153,2.339,0.327,3.667,0.526
					c10.682,1.602,30.978-4.273,39.524-5.341"/>
				<path style="fill:#FFFFFF;stroke:#263238;stroke-miterlimit:10;" d="M200.118,383.128c0,0,1.919,0,6.937,0.589"/>
			</g>
		</g>
		<path style="fill:#263238;stroke:#263238;stroke-miterlimit:10;" d="M135.291,325.881c0,0-12,0-14.404,12
			c-2.404,12,7.056,61.5,7.752,75.5c0.696,14,3.165,33.5,3.165,33.5h12.994h2.006h27.494l9.5-121H135.291z"/>
		<path style="fill:#636363;stroke:#263238;stroke-miterlimit:10;" d="M183.797,325.881c0,0-12,0-15,12s4,61.5,4,75.5
			s1.5,33.5,1.5,33.5h15c0,0,1.5-36,1.5-41s6-57,3-67.5S188.297,326.881,183.797,325.881z"/>
		<g>
			<polygon style="fill:#FFFFFF;stroke:#263238;stroke-miterlimit:10;" points="281.422,472.381 276.672,472.381 274.297,440.881 
				283.797,440.881 			"/>
			<polygon style="fill:#FFFFFF;stroke:#263238;stroke-miterlimit:10;" points="321.922,472.381 317.172,472.381 314.797,440.881 
				324.297,440.881 			"/>
			<polygon style="fill:#FFFFFF;stroke:#263238;stroke-miterlimit:10;" points="340.922,472.381 336.172,472.381 333.797,440.881 
				343.297,440.881 			"/>
			<polygon style="fill:#FFFFFF;stroke:#263238;stroke-miterlimit:10;" points="380.922,472.381 376.172,472.381 373.797,440.881 
				383.297,440.881 			"/>
			<g>
				<path style="fill:#263238;stroke:#263238;stroke-miterlimit:10;" d="M387.297,458.381h-119v-51.25c0-4.004,3.246-7.25,7.25-7.25
					h104.5c4.004,0,7.25,3.246,7.25,7.25V458.381z"/>
				<path style="fill:#636363;stroke:#263238;stroke-miterlimit:10;" d="M380.047,399.881h-38c-4.004,0-7.25,3.246-7.25,7.25v51.25
					h52.5v-51.25C387.297,403.127,384.051,399.881,380.047,399.881z"/>
			</g>
		</g>
	</g>
</g>
</svg>
